<svg xmlns="http://www.w3.org/2000/svg" viewBox="0 0 24.0 24.0"><path d="M14.127,11.221C13.392,11.385 12.712,11.755 12.172,12.296C12.112,12.355 12.055,12.416 12,12.479C11.945,12.416 11.888,12.355 11.828,12.296C11.287,11.755 10.607,11.385 9.871,11.221C10.859,10.492 11.5,9.32 11.5,8C11.5,5.792 9.708,4 7.5,4C5.292,4 3.5,5.792 3.5,8C3.5,9.32 4.141,10.492 5.129,11.221C4.393,11.385 3.713,11.755 3.172,12.296C2.421,13.046 2,14.064 2,15.125C2,17.35 2,20 2,20H4V15.125C4,14.594 4.211,14.085 4.586,13.71C4.961,13.335 5.47,13.125 6,13.125H9C9.53,13.125 10.039,13.335 10.414,13.71C10.789,14.085 11,14.594 11,15.125V20H13C13,20 13,17.35 13,15.125C13,14.594 13.211,14.085 13.586,13.71C13.961,13.335 14.47,13.125 15,13.125C15.964,13.125 17.031,13.125 17.994,13.125C18.525,13.125 19.034,13.335 19.409,13.71C19.784,14.085 19.994,14.594 19.994,15.125V20H21.994C21.994,20 21.994,17.35 21.994,15.125C21.994,14.064 21.573,13.046 20.823,12.296C20.282,11.755 19.602,11.385 18.868,11.221C19.856,10.493 20.497,9.32 20.497,8C20.497,5.792 18.705,4 16.497,4C14.29,4 12.497,5.792 12.497,8C12.497,9.32 13.139,10.493 14.127,11.221ZM7.5,6C8.604,6 9.5,6.896 9.5,8C9.5,9.103 8.604,10 7.5,10C6.396,10 5.5,9.103 5.5,8C5.5,6.896 6.396,6 7.5,6ZM16.497,6C17.601,6 18.497,6.896 18.497,8C18.497,9.103 17.601,10 16.497,10C15.393,10 14.497,9.103 14.497,8C14.497,6.896 15.393,6 16.497,6Z" fill="#fff" fill-opacity="1" fill-rule="evenodd"/></svg>
