<svg xmlns="http://www.w3.org/2000/svg" viewBox="0 0 24.0 24.0"><path d="M22,6C22,5.47 21.789,4.961 21.414,4.586C21.039,4.211 20.53,4 20,4H4C3.469,4 2.961,4.211 2.585,4.586C2.21,4.961 2,5.47 2,6V18C2,18.531 2.21,19.039 2.585,19.414C2.961,19.79 3.469,20 4,20H20C20.53,20 21.039,19.79 21.414,19.414C21.789,19.039 22,18.531 22,18V6ZM20,6V18H4V6H20ZM10,14L13,11L18,16H6L9,13L10,14ZM9,9.5C9,10.328 8.329,11 7.5,11C6.672,11 6,10.328 6,9.5C6,8.672 6.672,8 7.5,8C8.329,8 9,8.672 9,9.5Z" fill="#fff" fill-rule="evenodd"/></svg>
